<?xml version="1.0" encoding="UTF-8"?>
<svg width="390px" height="47px" viewBox="0 0 390 47" version="1.1" xmlns="http://www.w3.org/2000/svg" xmlns:xlink="http://www.w3.org/1999/xlink">
    <!-- Generator: Sketch 64 (93537) - https://sketch.com -->
    <title>StaticCharge</title>
    <desc>Created with Sketch.</desc>
    <g id="Page-1" stroke="none" stroke-width="1" fill="none" fill-rule="evenodd">
        <g id="Front-page" transform="translate(-500.000000, -3721.000000)">
            <g id="Footer" transform="translate(0.000000, 3288.000000)">
                <rect id="Rectangle" x="0" y="0" width="1440" height="512"></rect>
                <g id="koodia-suomesta" stroke-width="1" fill-rule="evenodd" transform="translate(620.000000, 106.000000)">
                    <polygon id="Path" fill="#FFFFFF" fill-rule="nonzero" points="8.17100793 76.8994975 8.98640997 78.218593 12.6047565 79.3969849 11.8912797 82 0 78.1482412 0.798414496 75.5452261 6.06455266 77.3040201 2.10645527 71.218593 3.09173273 68 7.15175538 74.6658291 15 71.5351759 14.0317101 74.7361809"></polygon>
                    <path d="M8.86513287,55.4713853 C9.62196143,53.9291104 10.9871252,52.7692907 12.63464,52.2688769 C14.2821547,51.768463 16.0641287,51.9723754 17.5550484,52.8319222 C19.1000094,53.5981696 20.2556263,54.9705325 20.7449736,56.6201459 C21.234321,58.2697593 21.0132972,60.0479543 20.1348671,61.5286147 C19.3780386,63.0708896 18.0128748,64.2307093 16.36536,64.7311231 C14.7178453,65.231537 12.9358713,65.0276246 11.4449516,64.1680778 C9.89999055,63.4018304 8.74437375,62.0294675 8.2550264,60.3798541 C7.76567905,58.7302407 7.98670282,56.9520457 8.86513287,55.4713853 Z M10.9188043,56.5711616 C10.4122159,57.4910891 10.3186951,58.581452 10.6612704,59.5737597 C11.0038458,60.5660674 11.7506856,61.368116 12.7178884,61.7824092 C13.9088338,62.5315544 15.4194377,62.5561271 16.6342674,61.846116 C17.849097,61.136105 18.5653694,59.8100275 18.4912691,58.4081386 C18.4171688,57.0062498 17.5650648,55.7625571 16.2821116,55.1837515 C15.3972238,54.6156016 14.3142872,54.4423249 13.2954897,54.7058731 C12.2766922,54.9694212 11.414916,55.6457671 10.9188043,56.5711616 Z" id="Shape" fill="#FFFFFF" fill-rule="nonzero"></path>
                    <path d="M21.6085506,37.4051113 C22.6606541,36.0448832 24.2327888,35.1828746 25.9478001,35.0258812 C27.6628114,34.8688878 29.3659444,35.431076 30.6486178,36.577577 C31.9974413,37.6422825 32.8419365,39.2184116 32.9799907,40.9287502 C33.118045,42.6390888 32.5372341,44.3297151 31.3765633,45.5960124 C30.3276132,46.9552967 28.7583327,47.8170519 27.0460115,47.9740931 C25.3336903,48.1311343 23.6332178,47.5692562 22.353425,46.4235467 C21.0065523,45.358414 20.1621423,43.7842628 20.0210026,42.0754395 C19.8798629,40.3666162 20.4546051,38.6758109 21.6085506,37.4051113 Z M23.3860919,38.9081839 C22.7096847,39.706371 22.3997578,40.7509304 22.5316898,41.7878101 C22.6636218,42.8246898 23.225323,43.7588738 24.0801794,44.3631551 C25.0898333,45.3398411 26.5616153,45.6724292 27.8946029,45.2251249 C29.2275906,44.7778207 30.198691,43.6254862 30.4114079,42.2386151 C30.6241248,40.8517441 30.0428573,39.4624471 28.9049345,38.6379686 C28.1588949,37.8991692 27.1357181,37.5075582 26.085782,37.5589655 C25.0358459,37.6103728 24.0560264,38.1000551 23.3860919,38.9081839 Z" id="Shape" fill="#FFFFFF" fill-rule="nonzero"></path>
                    <path d="M32,26.512758 L35.7841552,23.5334311 C37.4847891,22.0383151 39.8814228,21.5964517 42.0119911,22.3852155 C44.1425593,23.1739792 45.6577213,25.0640394 45.9492552,27.2966815 C46.2407891,29.5293237 45.2608934,31.7384701 43.4029211,33.0373174 L39.6187659,36 L32,26.512758 Z M41.9733514,31.256379 C42.8122733,30.6625842 43.3596715,29.7465573 43.4812966,28.7329538 C43.6029216,27.7193503 43.2875233,26.7019274 42.6124531,25.9302081 C42.0234793,25.07902 41.0905288,24.5223567 40.0549579,24.404228 C39.019387,24.2860994 37.9829317,24.6181106 37.213725,25.3143696 L35.5318782,26.6792009 L40.2410492,32.5546332 L41.9733514,31.256379 Z" id="Shape" fill="#FFFFFF" fill-rule="nonzero"></path>
                    <polygon id="Path" fill="#FFFFFF" fill-rule="nonzero" points="49 14.2827004 51.2258065 13 57 23.7004219 54.8225806 25"></polygon>
                    <path d="M70.812766,15.8836663 L65.706383,17.8084606 L65.706383,19.9964747 L63,21 L63,8.15158637 L66.0978723,7 L75,16.5581669 L72.293617,17.5452409 L70.812766,15.8836663 Z M65.4680851,15.4888367 L69.3148936,14.0740306 L65.3659574,9.63219741 L65.4680851,15.4888367 Z" id="Shape" fill="#FFFFFF" fill-rule="nonzero"></path>
                    <path d="M91.4087029,9.26115501 C92.4897616,10.2739092 93.9226626,10.7812589 95.3731116,10.6648399 C96.7889718,10.5435338 97.4386018,9.79836776 97.3719731,9.08786057 C97.3053444,8.37735338 96.2392849,7.89212896 94.8067675,7.66684619 C92.7912487,7.35491621 90.2260431,6.97366845 90.0094998,4.20095747 C89.8595852,2.10409479 91.4919888,0.267173763 94.3403664,0.0418909956 C96.0667726,-0.153967433 97.8000561,0.341767766 99.1876056,1.42824649 L97.8883456,3.40380306 C96.8716809,2.59059792 95.6025937,2.19574005 94.3237092,2.29471867 C93.1577067,2.38136589 92.5747054,2.97056697 92.6579913,3.71573305 C92.7412772,4.46089912 93.7573651,4.75549966 95.1732254,4.98078243 C97.2054013,5.31004186 99.7872641,5.72594851 99.9871502,8.53331838 C100.153722,10.8381344 98.7045474,12.6923848 95.4230831,12.9523265 C93.5260891,13.1779074 91.6219414,12.5967316 90.1427572,11.3406882 L91.4087029,9.26115501 Z" id="Path" fill="#FFFFFF" fill-rule="nonzero"></path>
                    <path d="M107.806305,0 L110.52255,0.284437372 L109.692105,7.47902973 C109.574666,8.48924899 110.023431,9.48332163 110.869355,10.0867901 C111.71528,10.6902585 112.829847,10.8114415 113.793211,10.4046907 C114.756575,9.99793981 115.422377,9.12505019 115.539816,8.11483092 L116.301057,0.903506948 L119,1.20467593 L118.169556,8.46619473 C117.840838,11.4946162 115.816631,13.3852881 112.079632,12.9335346 C108.342634,12.4817812 106.699046,10.2732086 107.045065,7.29498202 L107.806305,0 Z" id="Path" fill="#FFFFFF" fill-rule="nonzero"></path>
                    <path d="M134.458337,5.38506471 C136.118706,5.85138582 137.511892,6.99163914 138.304517,8.5329723 C139.097142,10.0743055 139.217888,11.8780313 138.637861,13.5125345 C138.154649,15.1780979 137.004134,16.5656299 135.462851,17.3416261 C133.921568,18.1176223 132.128893,18.2119104 130.51571,17.6018275 C128.859814,17.1363994 127.471506,15.9970466 126.684727,14.4578261 C125.897948,12.9186056 125.783905,11.1188241 126.370029,9.49139642 C126.850536,7.83110528 127.994147,6.44628145 129.527682,5.66772525 C131.061217,4.88916904 132.846959,4.78679752 134.458337,5.38506471 L134.458337,5.38506471 Z M133.747649,7.61713713 C132.750826,7.28309951 131.66024,7.38873557 130.744931,7.90798577 C129.829622,8.42723598 129.174814,9.31175256 128.942043,10.3433325 C128.394101,11.6600753 128.629091,13.1752929 129.549638,14.2611171 C130.470186,15.3469414 131.919443,15.8183631 133.296874,15.4800368 C134.674306,15.1417105 135.745216,14.0512824 136.065846,12.6605985 C136.47127,11.6855903 136.451053,10.583891 136.010135,9.6246302 C135.569216,8.66536944 134.7482,7.93688563 133.747649,7.61713713 L133.747649,7.61713713 Z" id="Shape" fill="#FFFFFF" fill-rule="nonzero"></path>
                    <polygon id="Path" fill="#FFFFFF" fill-rule="nonzero" points="156.923882 19.6686047 149.336822 25.755814 148.326356 25.1627907 149.850618 15.4302326 145.294957 23.3488372 143 21.9709302 149.319696 11 152.539486 12.9186047 151.203616 21.3255814 157.780209 16.0930233 161 18.0290698 154.680304 29 152.368221 27.6395349"></polygon>
                    <polygon id="Path" fill="#FFFFFF" fill-rule="nonzero" points="169.364055 24 176 29.7900677 174.461982 31.48307 169.847926 27.3860045 168.016129 29.4176072 172.543779 33.3961625 171.023041 35.0891648 166.495392 31.1106095 164.542627 33.2607223 169.208525 37.3069977 167.670507 39 161 33.1930023"></polygon>
                    <path d="M175.368651,42.5697109 C175.178815,43.9903266 175.579711,45.4264211 176.479198,46.5479293 C177.35769,47.6493368 178.319059,47.7644093 178.84947,47.3534363 C179.37988,46.9424633 179.147826,45.7095444 178.534538,44.4930644 C177.672621,42.6847834 176.512348,40.3833347 178.63399,38.706565 C180.291523,37.4736461 182.562343,37.8188634 184.335903,40.0216785 C185.476399,41.3197643 186.069871,43.0031251 185.993436,44.7232093 L183.623164,44.7232093 C183.699618,43.4603305 183.304258,42.2137829 182.512617,41.2217196 C181.783303,40.3175791 181.004262,40.1531899 180.440701,40.5970407 C179.87714,41.0408915 180.241797,42.0436655 180.838509,43.3423401 C181.733577,45.1670601 182.844124,47.5013866 180.739057,49.1617174 C179.081524,50.5261476 176.727828,50.3288806 174.689062,47.7972871 C173.44968,46.3664797 172.851213,44.4968239 173.031529,42.6190277 L175.368651,42.5697109 Z" id="Path" fill="#FFFFFF" fill-rule="nonzero"></path>
                    <polygon id="Path" fill="#FFFFFF" fill-rule="nonzero" points="191.882641 55.1188707 190.171149 52.0624071 192.224939 51 197 59.3358098 194.94621 60.3982169 193.234719 57.3580981 184.352078 62 183 59.7117385"></polygon>
                    <path d="M192.893365,76.9102384 L191.135071,71.7096774 L188.912322,71.7096774 L188,69 L200.954976,69.4880785 L202,72.5848527 L192.047393,81 L191.135071,78.3071529 L192.893365,76.9102384 Z M193.457346,71.6423562 L194.767773,75.4964937 L199.362559,71.743338 L193.457346,71.6423562 Z" id="Shape" fill="#FFFFFF" fill-rule="nonzero"></path>
                    <path d="M54,193 C16.3429097,172.528116 -3.98200656,130.220671 3.556959,88" id="Path" stroke="#FFFFFF" stroke-width="1.5" stroke-linecap="round"></path>
                    <path d="M150,193 C187.643138,172.543363 207.972072,130.232496 200.448933,88" id="Path" stroke="#FFFFFF" stroke-width="1.5" stroke-linecap="round"></path>
                    <path d="M62,201.491879 C62,199.786543 62.8982036,198 65,198 C67.1017964,198 68,199.786543 68,201.491879 C68,203.197216 67.1017964,205 65,205 C62.8982036,205 62,203.197216 62,201.491879 Z M66.6706587,201.491879 C66.6706587,200.208817 66.239521,199.055684 65,199.055684 C63.760479,199.055684 63.3473054,200.208817 63.3473054,201.491879 C63.3473054,202.774942 63.7784431,203.944316 65,203.944316 C66.2215569,203.944316 66.6706587,202.823666 66.6706587,201.491879 Z" id="Shape" fill="#FFFFFF" fill-rule="nonzero"></path>
                    <path d="M70,49.4918794 C70,47.8677494 70.8982036,46 73,46 C75.1017964,46 76,47.7865429 76,49.4918794 C76,51.1972158 75.1556886,53 73,53 C70.8443114,53 70,51.1972158 70,49.4918794 Z M74.6706587,49.4918794 C74.6706587,48.2088167 74.2215569,47.0556845 73,47.0556845 C71.7784431,47.0556845 71.3473054,48.2088167 71.3473054,49.4918794 C71.3473054,50.774942 71.7784431,51.9443155 73,51.9443155 C74.2215569,51.9443155 74.6706587,50.7262181 74.6706587,49.4918794 L74.6706587,49.4918794 Z" id="Shape" fill="#FFFFFF" fill-rule="nonzero"></path>
                    <polygon id="Path" fill="#FFFFFF" fill-rule="nonzero" points="79.7934783 53 79.7934783 47.5909091 78.6847826 48.7799043 78 48.0430622 79.9565217 46 81 46 81 53"></polygon>
                    <path d="M107,38.5244755 C107,36.8111888 107.898204,35 110,35 C112.101796,35 113,36.8111888 113,38.5244755 C113,40.2377622 112.101796,42 110,42 C107.898204,42 107,40.2377622 107,38.5244755 Z M111.652695,38.5244755 C111.652695,37.2191142 111.221557,36.0769231 110,36.0769231 C108.778443,36.0769231 108.329341,37.2191142 108.329341,38.5244755 C108.329341,39.8298368 108.760479,40.988345 110,40.988345 C111.239521,40.988345 111.652695,39.8135198 111.652695,38.5244755 Z" id="Shape" fill="#FFFFFF" fill-rule="nonzero"></path>
                    <polygon id="Path" fill="#FFFFFF" fill-rule="nonzero" points="115.793478 42 115.793478 36.5629454 114.684783 37.7434679 114 37.0118765 115.956522 35 117 35 117 42"></polygon>
                    <path d="M120,38.5244755 C120,36.8111888 120.895522,35 122.991045,35 C125.086567,35 126,36.8111888 126,38.5244755 C126,40.2377622 125.086567,42 122.991045,42 C120.895522,42 120,40.2377622 120,38.5244755 Z M124.656716,38.5244755 C124.656716,37.2191142 124.226866,36.0769231 122.991045,36.0769231 C121.755224,36.0769231 121.343284,37.2191142 121.343284,38.5244755 C121.343284,39.8298368 121.773134,40.988345 122.991045,40.988345 C124.208955,40.988345 124.656716,39.8135198 124.656716,38.5244755 L124.656716,38.5244755 Z" id="Shape" fill="#FFFFFF" fill-rule="nonzero"></path>
                    <polygon id="Path" fill="#FFFFFF" fill-rule="nonzero" points="128.809783 42 128.809783 36.5629454 127.684783 37.7434679 127 37.0118765 128.956522 35 130 35 130 42"></polygon>
                    <path d="M104,114.491879 C104,112.786543 104.898204,111 107,111 C109.101796,111 110,112.786543 110,114.491879 C110,116.197216 109.101796,118 107,118 C104.898204,118 104,116.213457 104,114.491879 Z M108.652695,114.491879 C108.652695,113.208817 108.221557,112.055684 107,112.055684 C105.778443,112.055684 105.329341,113.208817 105.329341,114.491879 C105.329341,115.774942 105.760479,116.944316 107,116.944316 C108.239521,116.944316 108.652695,115.791183 108.652695,114.491879 Z" id="Shape" fill="#FFFFFF" fill-rule="nonzero"></path>
                    <polygon id="Path" fill="#FFFFFF" fill-rule="nonzero" points="112.809783 118 112.809783 112.607656 111.701087 113.779904 111 113.043062 112.956522 111 114 111 114 118"></polygon>
                    <path d="M117,114.491879 C117,112.786543 117.898204,111 120,111 C122.101796,111 123,112.786543 123,114.491879 C123,116.197216 122.101796,118 120,118 C117.898204,118 117,116.213457 117,114.491879 Z M121.670659,114.491879 C121.670659,113.208817 121.239521,112.055684 120,112.055684 C118.760479,112.055684 118.347305,113.208817 118.347305,114.491879 C118.347305,115.774942 118.778443,116.944316 120,116.944316 C121.221557,116.944316 121.670659,115.791183 121.670659,114.491879 Z" id="Shape" fill="#FFFFFF" fill-rule="nonzero"></path>
                    <polygon id="Path" fill="#FFFFFF" fill-rule="nonzero" points="125.809783 118 125.809783 112.607656 124.684783 113.779904 124 113.043062 125.956522 111 127 111 127 118"></polygon>
                    <path d="M130,114.491879 C130,112.786543 130.898204,111 133,111 C135.101796,111 136,112.786543 136,114.491879 C136,116.197216 135.101796,118 133,118 C130.898204,118 130,116.213457 130,114.491879 Z M134.670659,114.491879 C134.670659,113.208817 134.221557,112.055684 133,112.055684 C131.778443,112.055684 131.347305,113.208817 131.347305,114.491879 C131.347305,115.774942 131.778443,116.944316 133,116.944316 C134.221557,116.944316 134.670659,115.791183 134.670659,114.491879 Z" id="Shape" fill="#FFFFFF" fill-rule="nonzero"></path>
                    <polygon id="Path" fill="#FFFFFF" fill-rule="nonzero" points="139.793478 118 139.793478 112.607656 138.684783 113.779904 138 113.043062 139.956522 111 141 111 141 118"></polygon>
                    <polygon id="Path" fill="#FFFFFF" fill-rule="nonzero" points="103.793478 53 103.793478 47.5275779 102.684783 48.7194245 102 48.0479616 103.956522 46 105 46 105 53"></polygon>
                    <path d="M108,49.4918794 C108,47.7865429 108.898204,46 111,46 C113.101796,46 114,47.7865429 114,49.4918794 C114,51.1972158 113.101796,53 111,53 C108.898204,53 108,51.1972158 108,49.4918794 Z M112.670659,49.4918794 C112.670659,48.2088167 112.221557,47.0556845 111,47.0556845 C109.778443,47.0556845 109.329341,48.2088167 109.329341,49.4918794 C109.329341,50.774942 109.778443,51.9443155 111,51.9443155 C112.221557,51.9443155 112.670659,50.8236659 112.670659,49.4918794 Z" id="Shape" fill="#FFFFFF" fill-rule="nonzero"></path>
                    <path d="M119,49.4918794 C119,47.7865429 119.898204,46 122,46 C124.101796,46 125,47.7865429 125,49.4918794 C125,51.1972158 124.101796,53 122,53 C119.898204,53 119,51.1972158 119,49.4918794 Z M123.670659,49.4918794 C123.670659,48.2088167 123.221557,47.0556845 122,47.0556845 C120.778443,47.0556845 120.329341,48.2088167 120.329341,49.4918794 C120.329341,50.774942 120.778443,51.9443155 122,51.9443155 C123.221557,51.9443155 123.670659,50.8236659 123.670659,49.4918794 Z" id="Shape" fill="#FFFFFF" fill-rule="nonzero"></path>
                    <polygon id="Path" fill="#FFFFFF" fill-rule="nonzero" points="97.7619048 129 97.7619048 123.594724 96.6825397 124.769784 96 124.031175 97.9047619 122 99 122 99 129"></polygon>
                    <path d="M101,125.508121 C101,123.786543 101.898204,122 104,122 C106.101796,122 107,123.786543 107,125.508121 C107,127.229698 106.101796,129 104,129 C101.898204,129 101,127.213457 101,125.508121 Z M105.670659,125.508121 C105.670659,124.208817 105.239521,123.055684 104,123.055684 C102.760479,123.055684 102.347305,124.208817 102.347305,125.508121 C102.347305,126.807425 102.778443,127.944316 104,127.944316 C105.221557,127.944316 105.742515,126.791183 105.742515,125.508121 L105.670659,125.508121 Z" id="Shape" fill="#FFFFFF" fill-rule="nonzero"></path>
                    <path d="M113,125.508121 C113,123.786543 113.898204,122 116,122 C118.101796,122 119,123.786543 119,125.508121 C119,127.229698 118.101796,129 116,129 C113.898204,129 113,127.213457 113,125.508121 Z M117.670659,125.508121 C117.670659,124.208817 117.221557,123.055684 116,123.055684 C114.778443,123.055684 114.347305,124.208817 114.347305,125.508121 C114.347305,126.807425 114.778443,127.944316 116,127.944316 C117.221557,127.944316 117.670659,126.791183 117.670659,125.508121 Z" id="Shape" fill="#FFFFFF" fill-rule="nonzero"></path>
                    <polygon id="Path" fill="#FFFFFF" fill-rule="nonzero" points="122.793478 129 122.793478 123.594724 121.684783 124.769784 121 124.031175 122.956522 122 124 122 124 129"></polygon>
                    <polygon id="Path" fill="#FFFFFF" fill-rule="nonzero" points="127.746032 129 127.746032 123.594724 126.666667 124.769784 126 124.031175 127.984127 122 129 122 129 129"></polygon>
                    <path d="M131,125.508121 C131,123.786543 131.898204,122 134,122 C136.101796,122 137,123.786543 137,125.508121 C137,127.229698 136.101796,129 134,129 C131.898204,129 131,127.213457 131,125.508121 Z M135.670659,125.508121 C135.670659,124.208817 135.221557,123.055684 134,123.055684 C132.778443,123.055684 132.329341,124.208817 132.329341,125.508121 C132.329341,126.807425 132.778443,127.944316 134,127.944316 C135.221557,127.944316 135.670659,126.791183 135.670659,125.508121 Z" id="Shape" fill="#FFFFFF" fill-rule="nonzero"></path>
                    <polygon id="Path" fill="#FFFFFF" fill-rule="nonzero" points="140.793478 129 140.793478 123.594724 139.684783 124.769784 139 124.031175 140.956522 122 142 122 142 129"></polygon>
                    <polygon id="Path" fill="#FFFFFF" fill-rule="nonzero" points="81.8097826 64 81.8097826 58.5947242 80.701087 59.7865707 80 59.0479616 81.9565217 57 83 57 83 64"></polygon>
                    <polygon id="Path" fill="#FFFFFF" fill-rule="nonzero" points="87.8097826 64 87.8097826 58.5947242 86.701087 59.7865707 86 59.0479616 87.9728261 57 89 57 89 64"></polygon>
                    <path d="M91,60.4918794 C91,58.8677494 91.8982036,57 94,57 C96.1017964,57 97,58.7865429 97,60.4918794 C97,62.1972158 96.1017964,64 94,64 C91.8982036,64 91,62.1972158 91,60.4918794 Z M95.6526946,60.4918794 C95.6526946,59.2088167 95.2215569,58.0556845 94,58.0556845 C92.7784431,58.0556845 92.3293413,59.2088167 92.3293413,60.4918794 C92.3293413,61.774942 92.7784431,62.9443155 94,62.9443155 C95.2215569,62.9443155 95.6347305,61.7911833 95.6347305,60.4918794 L95.6526946,60.4918794 Z" id="Shape" fill="#FFFFFF" fill-rule="nonzero"></path>
                    <polygon id="Path" fill="#FFFFFF" fill-rule="nonzero" points="100.82967 64 100.82967 58.5947242 99.7087912 59.7865707 99 59.0479616 100.945055 57 102 57 102 64"></polygon>
                    <path d="M104,60.4918794 C104,58.8677494 104.898204,57 107,57 C109.101796,57 110,58.7865429 110,60.4918794 C110,62.1972158 109.101796,64 107,64 C104.898204,64 104,62.1972158 104,60.4918794 Z M108.652695,60.4918794 C108.652695,59.2088167 108.221557,58.0556845 107,58.0556845 C105.778443,58.0556845 105.329341,59.2088167 105.329341,60.4918794 C105.329341,61.774942 105.760479,62.9443155 107,62.9443155 C108.239521,62.9443155 108.652695,61.7911833 108.652695,60.4918794 Z" id="Shape" fill="#FFFFFF" fill-rule="nonzero"></path>
                    <path d="M112,60.4918794 C112,58.8677494 112.892857,57 114.982143,57 C117.071429,57 118,58.7865429 118,60.4918794 C118,62.1972158 117.107143,64 115.017857,64 C112.928571,64 112,62.1972158 112,60.4918794 Z M116.642857,60.4918794 C116.642857,59.2088167 116.214286,58.0556845 114.982143,58.0556845 C113.75,58.0556845 113.339286,59.2088167 113.339286,60.4918794 C113.339286,61.774942 113.767857,62.9443155 114.982143,62.9443155 C116.196429,62.9443155 116.642857,61.7911833 116.642857,60.4918794 Z" id="Shape" fill="#FFFFFF" fill-rule="nonzero"></path>
                    <polygon id="Path" fill="#FFFFFF" fill-rule="nonzero" points="121.809783 64 121.809783 58.5947242 120.684783 59.7865707 120 59.0479616 121.956522 57 123 57 123 64"></polygon>
                    <path d="M77,179.491879 C77,177.786543 77.8982036,176 80,176 C82.1017964,176 83,177.786543 83,179.491879 C83,181.197216 82.1017964,183 80,183 C77.8982036,183 77,181.197216 77,179.491879 Z M81.6706587,179.491879 C81.6706587,178.208817 81.2215569,177.055684 80,177.055684 C78.7784431,177.055684 78.3293413,178.208817 78.3293413,179.491879 C78.3293413,180.774942 78.7784431,181.944316 80,181.944316 C81.2215569,181.944316 81.6706587,180.791183 81.6706587,179.491879 L81.6706587,179.491879 Z" id="Shape" fill="#FFFFFF" fill-rule="nonzero"></path>
                    <polygon id="Path" fill="#FFFFFF" fill-rule="nonzero" points="86.8097826 183 86.8097826 177.590909 85.701087 178.779904 85 178.043062 86.9565217 176 88 176 88 183"></polygon>
                    <path d="M90,179.491879 C90,177.786543 90.8982036,176 93,176 C95.1017964,176 96,177.786543 96,179.491879 C96,181.197216 95.1017964,183 93,183 C90.8982036,183 90,181.197216 90,179.491879 Z M94.6526946,179.491879 C94.6526946,178.208817 94.2215569,177.055684 93,177.055684 C91.7784431,177.055684 91.3293413,178.208817 91.3293413,179.491879 C91.3293413,180.774942 91.7784431,181.944316 93,181.944316 C94.2215569,181.944316 94.6526946,180.791183 94.6526946,179.491879 L94.6526946,179.491879 Z" id="Shape" fill="#FFFFFF" fill-rule="nonzero"></path>
                    <path d="M98,179.491879 C98,177.786543 98.9134328,176 101.008955,176 C103.104478,176 104,177.786543 104,179.491879 C104,181.197216 103.104478,183 101.008955,183 C98.9134328,183 98,181.197216 98,179.491879 Z M102.656716,179.491879 C102.656716,178.208817 102.226866,177.055684 101.008955,177.055684 C99.7910448,177.055684 99.3432836,178.208817 99.3432836,179.491879 C99.3432836,180.774942 99.7731343,181.944316 101.008955,181.944316 C102.244776,181.944316 102.746269,180.791183 102.746269,179.491879 L102.656716,179.491879 Z" id="Shape" fill="#FFFFFF" fill-rule="nonzero"></path>
                    <polygon id="Path" fill="#FFFFFF" fill-rule="nonzero" points="106.809783 183 106.809783 177.590909 105.701087 178.779904 105 178.043062 106.956522 176 108 176 108 183"></polygon>
                    <path d="M115,179.491879 C115,177.786543 115.898204,176 118,176 C120.101796,176 121,177.786543 121,179.491879 C121,181.197216 120.101796,183 118,183 C115.898204,183 115,181.197216 115,179.491879 Z M119.670659,179.491879 C119.670659,178.208817 119.239521,177.055684 118,177.055684 C116.760479,177.055684 116.347305,178.208817 116.347305,179.491879 C116.347305,180.774942 116.778443,181.944316 118,181.944316 C119.221557,181.944316 119.670659,180.791183 119.670659,179.491879 L119.670659,179.491879 Z" id="Shape" fill="#FFFFFF" fill-rule="nonzero"></path>
                    <polygon id="Path" fill="#FFFFFF" fill-rule="nonzero" points="123.809783 183 123.809783 177.590909 122.684783 178.779904 122 178.043062 123.956522 176 125 176 125 183"></polygon>
                    <polygon id="Path" fill="#FFFFFF" fill-rule="nonzero" points="129.809783 183 129.809783 177.590909 128.684783 178.779904 128 178.043062 129.956522 176 131 176 131 183"></polygon>
                    <path d="M133,179.491879 C133,177.786543 133.898204,176 136,176 C138.101796,176 139,177.786543 139,179.491879 C139,181.197216 138.101796,183 136,183 C133.898204,183 133,181.197216 133,179.491879 Z M137.670659,179.491879 C137.670659,178.208817 137.239521,177.055684 136,177.055684 C134.760479,177.055684 134.347305,178.208817 134.347305,179.491879 C134.347305,180.774942 134.778443,181.944316 136,181.944316 C137.221557,181.944316 137.670659,180.791183 137.670659,179.491879 L137.670659,179.491879 Z" id="Shape" fill="#FFFFFF" fill-rule="nonzero"></path>
                    <polygon id="Path" fill="#FFFFFF" fill-rule="nonzero" points="142.809783 183 142.809783 177.590909 141.684783 178.779904 141 178.043062 142.956522 176 144 176 144 183"></polygon>
                    <path d="M88,136.491879 C88,134.786543 88.8982036,133 91,133 C93.1017964,133 94,134.786543 94,136.491879 C94,138.197216 93.1017964,140 91,140 C88.8982036,140 88,138.213457 88,136.491879 Z M92.6706587,136.491879 C92.6706587,135.208817 92.239521,134.055684 91,134.055684 C89.760479,134.055684 89.3473054,135.208817 89.3473054,136.491879 C89.3473054,137.774942 89.7784431,138.944316 91,138.944316 C92.2215569,138.944316 92.6706587,137.791183 92.6706587,136.491879 Z" id="Shape" fill="#FFFFFF" fill-rule="nonzero"></path>
                    <path d="M96,136.491879 C96,134.786543 96.8982036,133 99,133 C101.101796,133 102,134.786543 102,136.491879 C102,138.197216 101.101796,140 99,140 C96.8982036,140 96,138.213457 96,136.491879 Z M100.670659,136.491879 C100.670659,135.208817 100.221557,134.055684 99,134.055684 C97.7784431,134.055684 97.3473054,135.208817 97.3473054,136.491879 C97.3473054,137.774942 97.7784431,138.944316 99,138.944316 C100.221557,138.944316 100.670659,137.791183 100.670659,136.491879 Z" id="Shape" fill="#FFFFFF" fill-rule="nonzero"></path>
                    <polygon id="Path" fill="#FFFFFF" fill-rule="nonzero" points="105.793478 140 105.793478 134.662708 104.684783 135.84323 104 135.111639 105.956522 133 107 133 107 139.950119"></polygon>
                    <path d="M113,136.491879 C113,134.786543 113.898204,133 116,133 C118.101796,133 119,134.786543 119,136.491879 C119,138.197216 118.101796,140 116,140 C113.898204,140 113,138.213457 113,136.491879 Z M117.670659,136.491879 C117.670659,135.208817 117.221557,134.055684 116,134.055684 C114.778443,134.055684 114.329341,135.208817 114.329341,136.491879 C114.329341,137.774942 114.778443,138.944316 116,138.944316 C117.221557,138.944316 117.670659,137.791183 117.670659,136.491879 Z" id="Shape" fill="#FFFFFF" fill-rule="nonzero"></path>
                    <polygon id="Path" fill="#FFFFFF" fill-rule="nonzero" points="122.809783 140 122.809783 134.662708 121.701087 135.84323 121 135.111639 122.972826 133 124 133 124 139.950119"></polygon>
                    <polygon id="Path" fill="#FFFFFF" fill-rule="nonzero" points="127.813187 140 127.813187 134.662708 126.692308 135.84323 126 135.111639 127.961538 133 129 133 129 139.950119"></polygon>
                    <path d="M131,136.491879 C131,134.786543 131.898204,133 134,133 C136.101796,133 137,134.786543 137,136.491879 C137,138.197216 136.101796,140 134,140 C131.898204,140 131,138.213457 131,136.491879 Z M135.670659,136.491879 C135.670659,135.208817 135.221557,134.055684 134,134.055684 C132.778443,134.055684 132.329341,135.208817 132.329341,136.491879 C132.329341,137.774942 132.778443,138.944316 134,138.944316 C135.221557,138.944316 135.670659,137.791183 135.670659,136.491879 Z" id="Shape" fill="#FFFFFF" fill-rule="nonzero"></path>
                    <polygon id="Path" fill="#FFFFFF" fill-rule="nonzero" points="140.809783 140 140.809783 134.662708 139.701087 135.84323 139 135.111639 140.972826 133 142 133 142 139.950119"></polygon>
                    <polygon id="Path" fill="#FFFFFF" fill-rule="nonzero" points="145.809783 140 145.809783 134.662708 144.701087 135.84323 144 135.111639 145.956522 133 147 133 147 139.950119"></polygon>
                    <path d="M90,71.5245902 C90,69.8032787 90.8902077,68 92.9732938,68 C95.0563798,68 96,69.8032787 96,71.5245902 C96,73.2459016 95.0563798,75 92.9732938,75 C90.8902077,75 90,73.2459016 90,71.5245902 Z M94.611276,71.5245902 C94.611276,70.2131148 94.1839763,69.0655738 92.9732938,69.0655738 C91.7626113,69.0655738 91.3175074,70.2131148 91.3175074,71.5245902 C91.3175074,72.8360656 91.7448071,74 92.9732938,74 C94.2017804,74 94.611276,72.8196721 94.611276,71.5245902 Z" id="Shape" fill="#FFFFFF" fill-rule="nonzero"></path>
                    <polygon id="Path" fill="#FFFFFF" fill-rule="nonzero" points="98.8586957 75 98.8586957 69.5795724 97.75 70.760095 97 70.0118765 98.9565217 68 100 68 100 75"></polygon>
                    <polygon id="Path" fill="#FFFFFF" fill-rule="nonzero" points="104.771277 75 104.771277 69.5795724 103.68617 70.760095 103 70.0118765 104.914894 68 106 68 106 75"></polygon>
                    <path d="M108,71.5245902 C108,69.8032787 108.898204,68 111,68 C113.101796,68 114,69.8032787 114,71.5245902 C114,73.2459016 113.101796,75 111,75 C108.898204,75 108,73.2459016 108,71.5245902 Z M112.652695,71.5245902 C112.652695,70.2131148 112.221557,69.0655738 111,69.0655738 C109.778443,69.0655738 109.329341,70.2131148 109.329341,71.5245902 C109.329341,72.8360656 109.760479,74 111,74 C112.239521,74 112.706587,72.8196721 112.706587,71.5245902 L112.652695,71.5245902 Z" id="Shape" fill="#FFFFFF" fill-rule="nonzero"></path>
                    <polygon id="Path" fill="#FFFFFF" fill-rule="nonzero" points="117.790323 75 117.790323 69.5795724 116.693548 70.760095 116 70.0118765 117.967742 68 119 68 119 75"></polygon>
                    <polygon id="Path" fill="#FFFFFF" fill-rule="nonzero" points="122.842391 75 122.842391 69.5795724 121.733696 70.760095 121 70.0118765 122.956522 68 124 68 124 75"></polygon>
                    <polygon id="Path" fill="#FFFFFF" fill-rule="nonzero" points="127.744565 75 127.744565 69.5795724 126.63587 70.760095 126 70.0118765 127.956522 68 129 68 129 75"></polygon>
                    <path d="M132,71.5245902 C132,69.8032787 132.913433,68 135.008955,68 C137.104478,68 138,69.8032787 138,71.5245902 C138,73.2459016 137.104478,75 135.008955,75 C132.913433,75 132,73.2459016 132,71.5245902 Z M136.656716,71.5245902 C136.656716,70.2131148 136.226866,69.0655738 135.008955,69.0655738 C133.791045,69.0655738 133.343284,70.2131148 133.343284,71.5245902 C133.343284,72.8360656 133.773134,74 135.008955,74 C136.244776,74 136.656716,72.8196721 136.656716,71.5245902 L136.656716,71.5245902 Z" id="Shape" fill="#FFFFFF" fill-rule="nonzero"></path>
                    <polygon id="Path" fill="#FFFFFF" fill-rule="nonzero" points="74.8097826 194 74.8097826 188.594724 73.6847826 189.786571 73 189.031175 74.9565217 187 76 187 76 194"></polygon>
                    <polygon id="Path" fill="#FFFFFF" fill-rule="nonzero" points="79.8097826 194 79.8097826 188.594724 78.6847826 189.786571 78 189.031175 79.9565217 187 81 187 81 194"></polygon>
                    <path d="M84,190.491879 C84,188.867749 84.8982036,187 87,187 C89.1017964,187 90,188.786543 90,190.491879 C90,192.197216 89.1017964,194 87,194 C84.8982036,194 84,192.262181 84,190.491879 Z M88.6706587,190.491879 C88.6706587,189.192575 88.2215569,188.055684 87,188.055684 C85.7784431,188.055684 85.3473054,189.192575 85.3473054,190.491879 C85.3473054,191.791183 85.7784431,192.944316 87,192.944316 C88.2215569,192.944316 88.6706587,191.774942 88.6706587,190.491879 Z" id="Shape" fill="#FFFFFF" fill-rule="nonzero"></path>
                    <path d="M95,190.491879 C95,188.867749 95.8982036,187 98,187 C100.101796,187 101,188.786543 101,190.491879 C101,192.197216 100.101796,194 98,194 C95.8982036,194 95,192.262181 95,190.491879 Z M99.6706587,190.491879 C99.6706587,189.192575 99.2215569,188.055684 98,188.055684 C96.7784431,188.055684 96.3473054,189.192575 96.3473054,190.491879 C96.3473054,191.791183 96.7784431,192.944316 98,192.944316 C99.2215569,192.944316 99.6167665,191.774942 99.6167665,190.491879 L99.6706587,190.491879 Z" id="Shape" fill="#FFFFFF" fill-rule="nonzero"></path>
                    <polygon id="Path" fill="#FFFFFF" fill-rule="nonzero" points="104.793478 194 104.793478 188.594724 103.684783 189.786571 103 189.031175 104.956522 187 106 187 106 194"></polygon>
                    <polygon id="Path" fill="#FFFFFF" fill-rule="nonzero" points="109.793478 194 109.793478 188.594724 108.684783 189.786571 108 189.031175 109.956522 187 111 187 111 194"></polygon>
                    <path d="M114,190.491879 C114,188.867749 114.898204,187 117,187 C119.101796,187 120,188.786543 120,190.491879 C120,192.197216 119.101796,194 117,194 C114.898204,194 114,192.262181 114,190.491879 Z M118.670659,190.491879 C118.670659,189.192575 118.221557,188.055684 117,188.055684 C115.778443,188.055684 115.329341,189.192575 115.329341,190.491879 C115.329341,191.791183 115.778443,192.944316 117,192.944316 C118.221557,192.944316 118.670659,191.774942 118.670659,190.491879 Z" id="Shape" fill="#FFFFFF" fill-rule="nonzero"></path>
                    <path d="M121,190.491879 C121,188.867749 121.898204,187 124,187 C126.101796,187 127,188.786543 127,190.491879 C127,192.197216 126.101796,194 124,194 C121.898204,194 121,192.262181 121,190.491879 Z M125.652695,190.491879 C125.652695,189.192575 125.221557,188.055684 124,188.055684 C122.778443,188.055684 122.329341,189.192575 122.329341,190.491879 C122.329341,191.791183 122.778443,192.944316 124,192.944316 C125.221557,192.944316 125.652695,191.774942 125.652695,190.491879 L125.652695,190.491879 Z" id="Shape" fill="#FFFFFF" fill-rule="nonzero"></path>
                    <path d="M129,190.491879 C129,188.867749 129.913433,187 132.008955,187 C134.104478,187 135,188.786543 135,190.491879 C135,192.197216 134.104478,194 132.008955,194 C129.913433,194 129,192.262181 129,190.491879 Z M133.656716,190.491879 C133.656716,189.192575 133.226866,188.055684 132.008955,188.055684 C130.791045,188.055684 130.343284,189.192575 130.343284,190.491879 C130.343284,191.791183 130.773134,192.944316 132.008955,192.944316 C133.244776,192.944316 133.656716,191.774942 133.656716,190.491879 L133.656716,190.491879 Z" id="Shape" fill="#FFFFFF" fill-rule="nonzero"></path>
                    <path d="M88,82.4918794 C88,80.8677494 88.8982036,79 91,79 C93.1017964,79 94,80.7865429 94,82.4918794 C94,84.1972158 93.1017964,86 91,86 C88.8982036,86 88,84.1972158 88,82.4918794 Z M92.6526946,82.4918794 C92.6526946,81.1925754 92.2215569,80.0556845 91,80.0556845 C89.7784431,80.0556845 89.3293413,81.1925754 89.3293413,82.4918794 C89.3293413,83.7911833 89.760479,84.9443155 91,84.9443155 C92.239521,84.9443155 92.6526946,83.774942 92.6526946,82.4918794 Z" id="Shape" fill="#FFFFFF" fill-rule="nonzero"></path>
                    <polygon id="Path" fill="#FFFFFF" fill-rule="nonzero" points="97.8097826 86 97.8097826 80.5947242 96.701087 81.7865707 96 81.0311751 97.9565217 79 99 79 99 86"></polygon>
                    <polygon id="Path" fill="#FFFFFF" fill-rule="nonzero" points="102.809783 86 102.809783 80.5947242 101.701087 81.7865707 101 81.0311751 102.956522 79 104 79 104 86"></polygon>
                    <path d="M107,82.4918794 C107,80.8677494 107.887574,79 109.964497,79 C112.04142,79 113,80.7865429 113,82.4918794 C113,84.1972158 112.112426,86 110.035503,86 C107.95858,86 107,84.1972158 107,82.4918794 Z M111.615385,82.4918794 C111.615385,81.1925754 111.189349,80.0556845 109.964497,80.0556845 C108.739645,80.0556845 108.331361,81.1925754 108.331361,82.4918794 C108.331361,83.7911833 108.757396,84.9443155 109.964497,84.9443155 C111.171598,84.9443155 111.615385,83.774942 111.615385,82.4918794 Z" id="Shape" fill="#FFFFFF" fill-rule="nonzero"></path>
                    <path d="M114,82.4918794 C114,80.8677494 114.898204,79 117,79 C119.101796,79 120,80.7865429 120,82.4918794 C120,84.1972158 119.101796,86 117,86 C114.898204,86 114,84.1972158 114,82.4918794 Z M118.670659,82.4918794 C118.670659,81.1925754 118.221557,80.0556845 117,80.0556845 C115.778443,80.0556845 115.347305,81.1925754 115.347305,82.4918794 C115.347305,83.7911833 115.778443,84.9443155 117,84.9443155 C118.221557,84.9443155 118.670659,83.774942 118.670659,82.4918794 L118.670659,82.4918794 Z" id="Shape" fill="#FFFFFF" fill-rule="nonzero"></path>
                    <path d="M122,82.4918794 C122,80.8677494 122.898204,79 125,79 C127.101796,79 128,80.7865429 128,82.4918794 C128,84.1972158 127.101796,86 125,86 C122.898204,86 122,84.1972158 122,82.4918794 Z M126.670659,82.4918794 C126.670659,81.1925754 126.221557,80.0556845 125,80.0556845 C123.778443,80.0556845 123.329341,81.1925754 123.329341,82.4918794 C123.329341,83.7911833 123.778443,84.9443155 125,84.9443155 C126.221557,84.9443155 126.670659,83.774942 126.670659,82.4918794 Z" id="Shape" fill="#FFFFFF" fill-rule="nonzero"></path>
                    <polygon id="Path" fill="#FFFFFF" fill-rule="nonzero" points="131.809783 86 131.809783 80.5947242 130.701087 81.7865707 130 81.0311751 131.972826 79 133 79 133 86"></polygon>
                    <polygon id="Path" fill="#FFFFFF" fill-rule="nonzero" points="136.793478 86 136.793478 80.5947242 135.684783 81.7865707 135 81.0311751 136.956522 79 138 79 138 86"></polygon>
                    <polygon id="Path" fill="#FFFFFF" fill-rule="nonzero" points="76.7934783 151 76.7934783 145.594724 75.6847826 146.786571 75 146.031175 76.9565217 144 78 144 78 151"></polygon>
                    <path d="M81,147.491879 C81,145.867749 81.8982036,144 84,144 C86.1017964,144 87,145.786543 87,147.491879 C87,149.197216 86.1017964,151 84,151 C81.8982036,151 81,149.197216 81,147.491879 Z M85.6706587,147.491879 C85.6706587,146.192575 85.2215569,145.055684 84,145.055684 C82.7784431,145.055684 82.3293413,146.192575 82.3293413,147.491879 C82.3293413,148.791183 82.7784431,149.960557 83.9640719,149.960557 C85.1497006,149.960557 85.760479,148.774942 85.760479,147.491879 L85.6706587,147.491879 Z" id="Shape" fill="#FFFFFF" fill-rule="nonzero"></path>
                    <path d="M92,147.491879 C92,145.867749 92.8982036,144 95,144 C97.1017964,144 98,145.786543 98,147.491879 C98,149.197216 97.1017964,151 95,151 C92.8982036,151 92,149.197216 92,147.491879 Z M96.6706587,147.491879 C96.6706587,146.192575 96.2215569,145.055684 95,145.055684 C93.7784431,145.055684 93.3293413,146.192575 93.3293413,147.491879 C93.3293413,148.791183 93.7784431,149.944316 95,149.944316 C96.2215569,149.944316 96.6706587,148.774942 96.6706587,147.491879 Z" id="Shape" fill="#FFFFFF" fill-rule="nonzero"></path>
                    <polygon id="Path" fill="#FFFFFF" fill-rule="nonzero" points="101.809783 151 101.809783 145.594724 100.701087 146.786571 100 146.031175 101.956522 144 103 144 103 151"></polygon>
                    <polygon id="Path" fill="#FFFFFF" fill-rule="nonzero" points="106.809783 151 106.809783 145.594724 105.701087 146.786571 105 146.031175 106.972826 144 108 144 108 151"></polygon>
                    <path d="M111,147.491879 C111,145.867749 111.898204,144 114,144 C116.101796,144 117,145.786543 117,147.491879 C117,149.197216 116.101796,151 114,151 C111.898204,151 111,149.197216 111,147.491879 Z M115.652695,147.491879 C115.652695,146.192575 115.221557,145.055684 114,145.055684 C112.778443,145.055684 112.329341,146.192575 112.329341,147.491879 C112.329341,148.791183 112.796407,149.960557 113.982036,149.960557 C115.167665,149.960557 115.634731,148.774942 115.634731,147.491879 L115.652695,147.491879 Z" id="Shape" fill="#FFFFFF" fill-rule="nonzero"></path>
                    <path d="M119,147.491879 C119,145.867749 119.895522,144 121.991045,144 C124.086567,144 125,145.786543 125,147.491879 C125,149.197216 124.086567,151 121.991045,151 C119.895522,151 119,149.197216 119,147.491879 Z M123.656716,147.491879 C123.656716,146.192575 123.226866,145.055684 121.991045,145.055684 C120.755224,145.055684 120.343284,146.192575 120.343284,147.491879 C120.343284,148.791183 120.773134,149.944316 121.991045,149.944316 C123.208955,149.944316 123.656716,148.774942 123.656716,147.491879 L123.656716,147.491879 Z" id="Shape" fill="#FFFFFF" fill-rule="nonzero"></path>
                    <path d="M126,147.491879 C126,145.867749 126.898204,144 129,144 C131.101796,144 132,145.786543 132,147.491879 C132,149.197216 131.101796,151 129,151 C126.898204,151 126,149.197216 126,147.491879 Z M130.670659,147.491879 C130.670659,146.192575 130.221557,145.055684 129,145.055684 C127.778443,145.055684 127.347305,146.192575 127.347305,147.491879 C127.347305,148.791183 127.778443,149.944316 129,149.944316 C130.221557,149.944316 130.670659,148.774942 130.670659,147.491879 Z" id="Shape" fill="#FFFFFF" fill-rule="nonzero"></path>
                    <polygon id="Path" fill="#FFFFFF" fill-rule="nonzero" points="135.793478 151 135.793478 145.594724 134.684783 146.786571 134 146.031175 135.956522 144 137 144 137 151"></polygon>
                    <polygon id="Path" fill="#FFFFFF" fill-rule="nonzero" points="140.809783 151 140.809783 145.594724 139.684783 146.786571 139 146.031175 140.956522 144 142 144 142 151"></polygon>
                    <path d="M149,147.491879 C149,145.867749 149.898204,144 152,144 C154.101796,144 155,145.786543 155,147.491879 C155,149.197216 154.101796,151 152,151 C149.898204,151 149,149.197216 149,147.491879 Z M153.670659,147.491879 C153.670659,146.192575 153.221557,145.055684 152,145.055684 C150.778443,145.055684 150.347305,146.192575 150.347305,147.491879 C150.347305,148.791183 150.778443,149.944316 152,149.944316 C153.221557,149.944316 153.670659,148.774942 153.670659,147.491879 L153.670659,147.491879 Z" id="Shape" fill="#FFFFFF" fill-rule="nonzero"></path>
                    <polygon id="Path" fill="#FFFFFF" fill-rule="nonzero" points="157.793478 151 157.793478 145.594724 156.684783 146.786571 156 146.031175 157.956522 144 159 144 159 151"></polygon>
                    <polygon id="Path" fill="#FFFFFF" fill-rule="nonzero" points="78.8097826 205 78.8097826 199.594724 77.6847826 200.769784 77 200.031175 78.9565217 198 80 198 80 205"></polygon>
                    <polygon id="Path" fill="#FFFFFF" fill-rule="nonzero" points="84.8097826 205 84.8097826 199.594724 83.701087 200.769784 83 200.031175 84.9565217 198 86 198 86 205"></polygon>
                    <path d="M92,201.5 C92,199.782407 92.8982036,198 95,198 C97.1017964,198 98,199.782407 98,201.5 C98,203.217593 97.1017964,205 95,205 C92.8982036,205 92,203.201389 92,201.5 Z M96.6706587,201.5 C96.6706587,200.203704 96.239521,199.053241 95,199.053241 C93.760479,199.053241 93.3473054,200.203704 93.3473054,201.5 C93.3473054,202.796296 93.7784431,203.930556 95,203.930556 C96.2215569,203.930556 96.6167665,202.780093 96.6167665,201.5 L96.6706587,201.5 Z" id="Shape" fill="#FFFFFF" fill-rule="nonzero"></path>
                    <polygon id="Path" fill="#FFFFFF" fill-rule="nonzero" points="101.809783 205 101.809783 199.594724 100.684783 200.769784 100 200.031175 101.956522 198 103 198 103 205"></polygon>
                    <polygon id="Path" fill="#FFFFFF" fill-rule="nonzero" points="106.809783 205 106.809783 199.594724 105.684783 200.769784 105 200.031175 106.956522 198 108 198 108 205"></polygon>
                    <path d="M110,201.5 C110,199.782407 110.898204,198 113,198 C115.101796,198 116,199.782407 116,201.5 C116,203.217593 115.101796,205 113,205 C110.898204,205 110,203.201389 110,201.5 Z M114.670659,201.5 C114.670659,200.203704 114.221557,199.053241 113,199.053241 C111.778443,199.053241 111.347305,200.203704 111.347305,201.5 C111.347305,202.796296 111.778443,203.930556 113,203.930556 C114.221557,203.930556 114.670659,202.780093 114.670659,201.5 Z" id="Shape" fill="#FFFFFF" fill-rule="nonzero"></path>
                    <path d="M88,93.4918794 C88,91.8677494 88.8982036,90 91,90 C93.1017964,90 94,91.7865429 94,93.4918794 C94,95.1972158 93.1017964,97 91,97 C88.8982036,97 88,95.2134571 88,93.4918794 Z M92.6526946,93.4918794 C92.6526946,92.2088167 92.2215569,91.0556845 91,91.0556845 C89.7784431,91.0556845 89.3293413,92.2088167 89.3293413,93.4918794 C89.3293413,94.774942 89.7784431,95.9443155 91,95.9443155 C92.2215569,95.9443155 92.6526946,94.7911833 92.6526946,93.4918794 Z" id="Shape" fill="#FFFFFF" fill-rule="nonzero"></path>
                    <polygon id="Path" fill="#FFFFFF" fill-rule="nonzero" points="97.8097826 97 97.8097826 91.6076555 96.701087 92.7799043 96 92.0430622 97.9565217 90 99 90 99 97"></polygon>
                    <polygon id="Path" fill="#FFFFFF" fill-rule="nonzero" points="102.809783 97 102.809783 91.6076555 101.701087 92.7799043 101 92.0430622 102.972826 90 104 90 104 97"></polygon>
                    <path d="M107,93.4918794 C107,91.8677494 107.898204,90 110,90 C112.101796,90 113,91.7865429 113,93.4918794 C113,95.1972158 112.101796,97 110,97 C107.898204,97 107,95.2134571 107,93.4918794 Z M111.652695,93.4918794 C111.652695,92.2088167 111.221557,91.0556845 110,91.0556845 C108.778443,91.0556845 108.329341,92.2088167 108.329341,93.4918794 C108.329341,94.774942 108.778443,95.9443155 110,95.9443155 C111.221557,95.9443155 111.652695,94.7911833 111.652695,93.4918794 Z" id="Shape" fill="#FFFFFF" fill-rule="nonzero"></path>
                    <polygon id="Path" fill="#FFFFFF" fill-rule="nonzero" points="115.777174 97 115.777174 91.6076555 114.668478 92.7799043 114 92.0430622 115.956522 90 117 90 117 97"></polygon>
                    <path d="M120,93.4918794 C120,91.8677494 120.898204,90 123,90 C125.101796,90 126,91.7865429 126,93.4918794 C126,95.1972158 125.101796,97 123,97 C120.898204,97 120,95.2134571 120,93.4918794 Z M124.652695,93.4918794 C124.652695,92.2088167 124.221557,91.0556845 123,91.0556845 C121.778443,91.0556845 121.329341,92.2088167 121.329341,93.4918794 C121.329341,94.774942 121.760479,95.9443155 123,95.9443155 C124.239521,95.9443155 124.652695,94.7911833 124.652695,93.4918794 Z" id="Shape" fill="#FFFFFF" fill-rule="nonzero"></path>
                    <path d="M127,93.4918794 C127,91.8677494 127.898204,90 130,90 C132.101796,90 133,91.7865429 133,93.4918794 C133,95.1972158 132.101796,97 130,97 C127.898204,97 127,95.2134571 127,93.4918794 Z M131.670659,93.4918794 C131.670659,92.2088167 131.239521,91.0556845 130,91.0556845 C128.760479,91.0556845 128.347305,92.2088167 128.347305,93.4918794 C128.347305,94.774942 128.778443,95.9443155 130,95.9443155 C131.221557,95.9443155 131.670659,94.7911833 131.670659,93.4918794 L131.670659,93.4918794 Z" id="Shape" fill="#FFFFFF" fill-rule="nonzero"></path>
                    <polygon id="Path" fill="#FFFFFF" fill-rule="nonzero" points="136.809783 97 136.809783 91.6076555 135.684783 92.7799043 135 92.0430622 136.956522 90 138 90 138 97"></polygon>
                    <polygon id="Path" fill="#FFFFFF" fill-rule="nonzero" points="71.8097826 161.916067 71.8097826 156.510791 70.6847826 157.685851 70 157.031175 71.9565217 155 73 155 73 162"></polygon>
                    <path d="M76,158.491917 C76,156.778291 76.8982036,155 79,155 C81.1017964,155 82,156.778291 82,158.491917 C82,160.205543 81.1017964,162 79,162 C76.8982036,162 76,160.189376 76,158.491917 Z M80.6706587,158.491917 C80.6706587,157.198614 80.2215569,156.050808 79,156.050808 C77.7784431,156.050808 77.3473054,157.198614 77.3473054,158.491917 C77.3473054,159.785219 77.7784431,160.916859 79,160.916859 C80.2215569,160.916859 80.6706587,159.769053 80.6706587,158.491917 Z" id="Shape" fill="#FFFFFF" fill-rule="nonzero"></path>
                    <polygon id="Path" fill="#FFFFFF" fill-rule="nonzero" points="84.8423913 161.916067 84.8423913 156.510791 83.7336957 157.685851 83 157.031175 84.9565217 155 86 155 86 162"></polygon>
                    <path d="M89,158.491917 C89,156.778291 89.8982036,155 92,155 C94.1017964,155 95,156.778291 95,158.491917 C95,160.205543 94.1736527,162 92,162 C89.8263473,162 89,160.189376 89,158.491917 Z M93.6706587,158.491917 C93.6706587,157.198614 93.2215569,156.050808 92,156.050808 C90.7784431,156.050808 90.3473054,157.198614 90.3473054,158.491917 C90.3473054,159.785219 90.7784431,160.916859 92,160.916859 C93.2215569,160.916859 93.6706587,159.769053 93.6706587,158.491917 Z" id="Shape" fill="#FFFFFF" fill-rule="nonzero"></path>
                    <path d="M97,158.491917 C97,156.778291 97.9063444,155 100.02719,155 C102.148036,155 103,156.778291 103,158.491917 C103,160.205543 102.148036,162 100.02719,162 C97.9063444,162 97,160.189376 97,158.491917 Z M101.712991,158.491917 C101.712991,157.198614 101.259819,156.050808 100.02719,156.050808 C98.7945619,156.050808 98.3413897,157.198614 98.3413897,158.491917 C98.3413897,159.785219 98.7945619,160.916859 100.02719,160.916859 C101.259819,160.916859 101.712991,159.769053 101.712991,158.491917 Z" id="Shape" fill="#FFFFFF" fill-rule="nonzero"></path>
                    <polygon id="Path" fill="#FFFFFF" fill-rule="nonzero" points="105.809783 161.916067 105.809783 156.510791 104.701087 157.685851 104 157.031175 105.956522 155 107 155 107 162"></polygon>
                    <path d="M114,158.491917 C114,156.778291 114.900901,155 117.009009,155 C119.117117,155 120,156.778291 120,158.491917 C120,160.205543 119.117117,162 117.009009,162 C114.900901,162 114,160.189376 114,158.491917 Z M118.666667,158.491917 C118.666667,157.198614 118.234234,156.050808 117.009009,156.050808 C115.783784,156.050808 115.333333,157.198614 115.333333,158.491917 C115.333333,159.785219 115.783784,160.916859 117.009009,160.916859 C118.234234,160.916859 118.666667,159.769053 118.666667,158.491917 Z" id="Shape" fill="#FFFFFF" fill-rule="nonzero"></path>
                    <polygon id="Path" fill="#FFFFFF" fill-rule="nonzero" points="122.809783 161.916067 122.809783 156.510791 121.701087 157.685851 121 157.031175 122.956522 155 124 155 124 162"></polygon>
                    <polygon id="Path" fill="#FFFFFF" fill-rule="nonzero" points="128.809783 161.916067 128.809783 156.510791 127.701087 157.685851 127 157.031175 128.956522 155 130 155 130 162"></polygon>
                    <polygon id="Path" fill="#FFFFFF" fill-rule="nonzero" points="133.809783 161.916067 133.809783 156.510791 132.701087 157.685851 132 157.031175 133.972826 155 135 155 135 162"></polygon>
                    <path d="M137,158.491917 C137,156.778291 137.898204,155 140,155 C142.101796,155 143,156.778291 143,158.491917 C143,160.205543 142.101796,162 140,162 C137.898204,162 137,160.189376 137,158.491917 Z M141.652695,158.491917 C141.652695,157.198614 141.221557,156.050808 140,156.050808 C138.778443,156.050808 138.329341,157.198614 138.329341,158.491917 C138.329341,159.785219 138.760479,160.916859 140,160.916859 C141.239521,160.916859 141.652695,159.769053 141.652695,158.491917 L141.652695,158.491917 Z" id="Shape" fill="#FFFFFF" fill-rule="nonzero"></path>
                    <polygon id="Path" fill="#FFFFFF" fill-rule="nonzero" points="146.777174 161.916067 146.777174 156.510791 145.668478 157.685851 145 157.031175 146.956522 155 148 155 148 162"></polygon>
                    <path d="M150,158.491917 C150,156.778291 150.913433,155 153.008955,155 C155.104478,155 156,156.778291 156,158.491917 C156,160.205543 155.086567,162 153.008955,162 C150.931343,162 150,160.189376 150,158.491917 Z M154.656716,158.491917 C154.656716,157.198614 154.226866,156.050808 153.008955,156.050808 C151.791045,156.050808 151.343284,157.198614 151.343284,158.491917 C151.343284,159.785219 151.773134,160.916859 153.008955,160.916859 C154.244776,160.916859 154.656716,159.769053 154.656716,158.491917 L154.656716,158.491917 Z" id="Shape" fill="#FFFFFF" fill-rule="nonzero"></path>
                    <path d="M78,168.491879 C78,166.867749 78.8982036,165 81,165 C83.1017964,165 84,166.786543 84,168.491879 C84,170.197216 83.1017964,172 81,172 C78.8982036,172 78,170.197216 78,168.491879 Z M82.6526946,168.491879 C82.6526946,167.192575 82.2215569,166.055684 81,166.055684 C79.7784431,166.055684 79.3293413,167.192575 79.3293413,168.491879 C79.3293413,169.791183 79.7784431,170.944316 81,170.944316 C82.2215569,170.944316 82.6526946,169.807425 82.6526946,168.491879 L82.6526946,168.491879 Z" id="Shape" fill="#FFFFFF" fill-rule="nonzero"></path>
                    <polygon id="Path" fill="#FFFFFF" fill-rule="nonzero" points="87.8097826 172 87.8097826 166.594724 86.701087 167.786571 86 167.031175 87.9565217 165 89 165 89 172"></polygon>
                    <path d="M91,168.491879 C91,166.867749 91.8982036,165 94,165 C96.1017964,165 97,166.786543 97,168.491879 C97,170.197216 96.1017964,172 94,172 C91.8982036,172 91,170.197216 91,168.491879 Z M95.6526946,168.491879 C95.6526946,167.192575 95.2215569,166.055684 94,166.055684 C92.7784431,166.055684 92.3293413,167.192575 92.3293413,168.491879 C92.3293413,169.791183 92.760479,170.944316 94,170.944316 C95.239521,170.944316 95.6526946,169.807425 95.6526946,168.491879 Z" id="Shape" fill="#FFFFFF" fill-rule="nonzero"></path>
                    <polygon id="Path" fill="#FFFFFF" fill-rule="nonzero" points="100.809783 172 100.809783 166.594724 99.701087 167.786571 99 167.031175 100.956522 165 102 165 102 172"></polygon>
                    <path d="M104,168.491879 C104,166.867749 104.898204,165 107,165 C109.101796,165 110,166.786543 110,168.491879 C110,170.197216 109.101796,172 107,172 C104.898204,172 104,170.197216 104,168.491879 Z M108.670659,168.491879 C108.670659,167.192575 108.239521,166.055684 107,166.055684 C105.760479,166.055684 105.347305,167.192575 105.347305,168.491879 C105.347305,169.791183 105.778443,170.944316 107,170.944316 C108.221557,170.944316 108.670659,169.807425 108.670659,168.491879 Z" id="Shape" fill="#FFFFFF" fill-rule="nonzero"></path>
                    <polygon id="Path" fill="#FFFFFF" fill-rule="nonzero" points="113.809783 172 113.809783 166.594724 112.684783 167.786571 112 167.031175 113.956522 165 115 165 115 172"></polygon>
                    <polygon id="Path" fill="#FFFFFF" fill-rule="nonzero" points="118.809783 172 118.809783 166.594724 117.684783 167.786571 117 167.031175 118.956522 165 120 165 120 172"></polygon>
                    <path d="M122,168.491879 C122,166.867749 122.898204,165 125,165 C127.101796,165 128,166.786543 128,168.491879 C128,170.197216 127.101796,172 125,172 C122.898204,172 122,170.197216 122,168.491879 Z M126.670659,168.491879 C126.670659,167.192575 126.239521,166.055684 125,166.055684 C123.760479,166.055684 123.347305,167.192575 123.347305,168.491879 C123.347305,169.791183 123.778443,170.944316 125,170.944316 C126.221557,170.944316 126.670659,169.807425 126.670659,168.491879 Z" id="Shape" fill="#FFFFFF" fill-rule="nonzero"></path>
                    <path d="M134,168.491879 C134,166.867749 134.898204,165 137,165 C139.101796,165 140,166.786543 140,168.491879 C140,170.197216 139.101796,172 137,172 C134.898204,172 134,170.197216 134,168.491879 Z M138.670659,168.491879 C138.670659,167.192575 138.221557,166.055684 137,166.055684 C135.778443,166.055684 135.347305,167.192575 135.347305,168.491879 C135.347305,169.791183 135.778443,170.944316 137,170.944316 C138.221557,170.944316 138.670659,169.807425 138.670659,168.491879 Z" id="Shape" fill="#FFFFFF" fill-rule="nonzero"></path>
                    <polygon id="Path" fill="#FFFFFF" fill-rule="nonzero" points="143.803279 172 143.803279 166.594724 142.688525 167.786571 142 167.031175 143.967213 165 145 165 145 172"></polygon>
                    <polygon id="Path" fill="#FFFFFF" fill-rule="nonzero" points="148.793478 172 148.793478 166.594724 147.684783 167.786571 147 167.031175 148.956522 165 150 165 150 172"></polygon>
                    <path d="M70,168.491879 C70,166.867749 70.8982036,165 73,165 C75.1017964,165 76,166.786543 76,168.491879 C76,170.197216 75.1017964,172 73,172 C70.8982036,172 70,170.197216 70,168.491879 Z M74.6706587,168.491879 C74.6706587,167.192575 74.2215569,166.055684 73,166.055684 C71.7784431,166.055684 71.3293413,167.192575 71.3293413,168.491879 C71.3293413,169.791183 71.7784431,170.944316 73,170.944316 C74.2215569,170.944316 74.6706587,169.807425 74.6706587,168.491879 Z" id="Shape" fill="#FFFFFF" fill-rule="nonzero"></path>
                    <path d="M92,103.5 C92,101.798611 92.8982036,100 95,100 C97.1017964,100 98,101.798611 98,103.5 C98,105.201389 97.1017964,107 95,107 C92.8982036,107 92,105.12037 92,103.5 Z M96.6706587,103.5 C96.6706587,102.203704 96.239521,101.069444 95,101.069444 C93.760479,101.069444 93.3473054,102.203704 93.3473054,103.5 C93.3473054,104.796296 93.7784431,105.946759 95,105.946759 C96.2215569,105.946759 96.6706587,104.763889 96.6706587,103.5 L96.6706587,103.5 Z" id="Shape" fill="#FFFFFF" fill-rule="nonzero"></path>
                    <polygon id="Path" fill="#FFFFFF" fill-rule="nonzero" points="101.809783 107 101.809783 101.594724 100.684783 102.786571 100 102.031175 101.956522 100 103 100 103 107"></polygon>
                    <polygon id="Path" fill="#FFFFFF" fill-rule="nonzero" points="106.809783 107 106.809783 101.594724 105.684783 102.786571 105 102.031175 106.956522 100 108 100 108 107"></polygon>
                    <polygon id="Path" fill="#FFFFFF" fill-rule="nonzero" points="111.809783 107 111.809783 101.594724 110.684783 102.786571 110 102.031175 111.956522 100 113 100 113 107"></polygon>
                    <path d="M115,103.5 C115,101.798611 115.898204,100 118,100 C120.101796,100 121,101.798611 121,103.5 C121,105.201389 120.101796,107 118,107 C115.898204,107 115,105.12037 115,103.5 Z M119.670659,103.5 C119.670659,102.203704 119.221557,101.069444 118,101.069444 C116.778443,101.069444 116.347305,102.203704 116.347305,103.5 C116.347305,104.796296 116.778443,105.946759 118,105.946759 C119.221557,105.946759 119.670659,104.763889 119.670659,103.5 Z" id="Shape" fill="#FFFFFF" fill-rule="nonzero"></path>
                    <polygon id="Path" fill="#FFFFFF" fill-rule="nonzero" points="124.764706 107 124.764706 101.594724 123.673797 102.786571 123 102.031175 124.925134 100 126 100 126 107"></polygon>
                    <path d="M128,103.5 C128,101.798611 128.898204,100 131,100 C133.101796,100 134,101.798611 134,103.5 C134,105.201389 133.101796,107 131,107 C128.898204,107 128,105.12037 128,103.5 Z M132.706587,103.5 C132.706587,102.203704 132.257485,101.069444 131.035928,101.069444 C129.814371,101.069444 129.383234,102.203704 129.383234,103.5 C129.383234,104.796296 129.814371,105.946759 131.035928,105.946759 C132.257485,105.946759 132.706587,104.763889 132.706587,103.5 Z" id="Shape" fill="#FFFFFF" fill-rule="nonzero"></path>
                    <path d="M136,103.5 C136,101.798611 136.898204,100 139,100 C141.101796,100 142,101.798611 142,103.5 C142,105.201389 141.101796,107 139,107 C136.898204,107 136,105.12037 136,103.5 Z M140.670659,103.5 C140.670659,102.203704 140.221557,101.069444 139,101.069444 C137.778443,101.069444 137.329341,102.203704 137.329341,103.5 C137.329341,104.796296 137.778443,105.946759 139,105.946759 C140.221557,105.946759 140.580838,104.763889 140.580838,103.5 L140.670659,103.5 Z" id="Shape" fill="#FFFFFF" fill-rule="nonzero"></path>
                </g>
            </g>
            <path d="M561.304,3757.576 C565.048,3757.576 567.936,3756.696 569.968,3754.936 C572,3753.176 573.016,3750.744 573.016,3747.64 C573.016,3746.552 572.872,3745.512 572.584,3744.52 C572.296,3743.528 571.808,3742.632 571.12,3741.832 C570.432,3741.032 569.528,3740.344 568.408,3739.768 C567.288,3739.192 565.912,3738.76 564.28,3738.472 L564.28,3738.472 L560.68,3737.848 C558.312,3737.432 556.672,3736.752 555.76,3735.808 C554.848,3734.864 554.392,3733.64 554.392,3732.136 C554.392,3730.216 555,3728.776 556.216,3727.816 C557.432,3726.856 559.176,3726.376 561.448,3726.376 C563.528,3726.376 565.224,3726.76 566.536,3727.528 C567.848,3728.296 568.968,3729.288 569.896,3730.504 L569.896,3730.504 L572.728,3728.056 C571.608,3726.424 570.128,3725.16 568.288,3724.264 C566.448,3723.368 564.184,3722.92 561.496,3722.92 C558.072,3722.92 555.352,3723.704 553.336,3725.272 C551.32,3726.84 550.312,3729.16 550.312,3732.232 C550.312,3733.288 550.456,3734.304 550.744,3735.28 C551.032,3736.256 551.512,3737.152 552.184,3737.968 C552.856,3738.784 553.744,3739.48 554.848,3740.056 C555.952,3740.632 557.32,3741.064 558.952,3741.352 L558.952,3741.352 L562.696,3741.976 C565,3742.36 566.616,3743.008 567.544,3743.92 C568.472,3744.832 568.936,3746.104 568.936,3747.736 C568.936,3749.752 568.296,3751.32 567.016,3752.44 C565.736,3753.56 563.88,3754.12 561.448,3754.12 C559.432,3754.12 557.696,3753.72 556.24,3752.92 C554.784,3752.12 553.4,3750.904 552.088,3749.272 L552.088,3749.272 L549.16,3751.672 C550.408,3753.4 551.992,3754.816 553.912,3755.92 C555.832,3757.024 558.296,3757.576 561.304,3757.576 Z M601.048,3757 L601.048,3753.736 L589.768,3753.736 L589.768,3735.496 L601.048,3735.496 L601.048,3732.232 L589.768,3732.232 L589.768,3723.496 L586.072,3723.496 L586.072,3729.976 C586.072,3730.808 585.904,3731.392 585.568,3731.728 C585.232,3732.064 584.648,3732.232 583.816,3732.232 L583.816,3732.232 L577.672,3732.232 L577.672,3735.496 L585.928,3735.496 L585.928,3751.336 C585.928,3753 586.368,3754.36 587.248,3755.416 C588.128,3756.472 589.512,3757 591.4,3757 L591.4,3757 L601.048,3757 Z M616.264,3757.576 C618.28,3757.576 619.888,3757.168 621.088,3756.352 C622.288,3755.536 623.16,3754.408 623.704,3752.968 L623.704,3752.968 L623.944,3752.968 C624.104,3754.12 624.504,3755.08 625.144,3755.848 C625.784,3756.616 626.856,3757 628.36,3757 L628.36,3757 L631,3757 L631,3753.64 L627.544,3753.64 L627.544,3740.008 C627.544,3737.384 626.688,3735.336 624.976,3733.864 C623.264,3732.392 620.952,3731.656 618.04,3731.656 C616.792,3731.656 615.656,3731.792 614.632,3732.064 C613.608,3732.336 612.696,3732.704 611.896,3733.168 C611.096,3733.632 610.424,3734.168 609.88,3734.776 C609.336,3735.384 608.904,3736.008 608.584,3736.648 L608.584,3736.648 L611.176,3738.568 C611.816,3737.448 612.664,3736.56 613.72,3735.904 C614.776,3735.248 616.136,3734.92 617.8,3734.92 C619.688,3734.92 621.144,3735.376 622.168,3736.288 C623.192,3737.2 623.704,3738.568 623.704,3740.392 L623.704,3740.392 L623.704,3742.84 L618.424,3742.84 C614.68,3742.84 611.968,3743.464 610.288,3744.712 C608.608,3745.96 607.768,3747.736 607.768,3750.04 C607.768,3752.376 608.536,3754.216 610.072,3755.56 C611.608,3756.904 613.672,3757.576 616.264,3757.576 Z M616.936,3754.36 C615.336,3754.36 614.08,3754.032 613.168,3753.376 C612.256,3752.72 611.8,3751.752 611.8,3750.472 L611.8,3750.472 L611.8,3749.464 C611.8,3748.248 612.328,3747.32 613.384,3746.68 C614.44,3746.04 616.12,3745.72 618.424,3745.72 L618.424,3745.72 L623.704,3745.72 L623.704,3749.8 C623.704,3750.44 623.536,3751.04 623.2,3751.6 C622.864,3752.16 622.392,3752.64 621.784,3753.04 C621.176,3753.44 620.464,3753.76 619.648,3754 C618.832,3754.24 617.928,3754.36 616.936,3754.36 Z M658.648,3757 L658.648,3753.736 L647.368,3753.736 L647.368,3735.496 L658.648,3735.496 L658.648,3732.232 L647.368,3732.232 L647.368,3723.496 L643.672,3723.496 L643.672,3729.976 C643.672,3730.808 643.504,3731.392 643.168,3731.728 C642.832,3732.064 642.248,3732.232 641.416,3732.232 L641.416,3732.232 L635.272,3732.232 L635.272,3735.496 L643.528,3735.496 L643.528,3751.336 C643.528,3753 643.968,3754.36 644.848,3755.416 C645.728,3756.472 647.112,3757 649,3757 L649,3757 L658.648,3757 Z M678.136,3726.76 C679.256,3726.76 680.04,3726.528 680.488,3726.064 C680.936,3725.6 681.16,3725.016 681.16,3724.312 L681.16,3724.312 L681.16,3723.544 C681.16,3722.84 680.936,3722.256 680.488,3721.792 C680.04,3721.328 679.256,3721.096 678.136,3721.096 C677.016,3721.096 676.232,3721.328 675.784,3721.792 C675.336,3722.256 675.112,3722.84 675.112,3723.544 L675.112,3723.544 L675.112,3724.312 C675.112,3725.016 675.336,3725.6 675.784,3726.064 C676.232,3726.528 677.016,3726.76 678.136,3726.76 Z M688.408,3757 L688.408,3753.736 L680.056,3753.736 L680.056,3732.232 L667.288,3732.232 L667.288,3735.496 L676.216,3735.496 L676.216,3753.736 L667.288,3753.736 L667.288,3757 L688.408,3757 Z M706.264,3757.576 C708.76,3757.576 710.784,3757.032 712.336,3755.944 C713.888,3754.856 715.032,3753.48 715.768,3751.816 L715.768,3751.816 L713.032,3749.944 C712.392,3751.288 711.528,3752.344 710.44,3753.112 C709.352,3753.88 707.976,3754.264 706.312,3754.264 C705.16,3754.264 704.136,3754.08 703.24,3753.712 C702.344,3753.344 701.592,3752.824 700.984,3752.152 C700.376,3751.48 699.92,3750.68 699.616,3749.752 C699.312,3748.824 699.16,3747.816 699.16,3746.728 L699.16,3746.728 L699.16,3742.504 C699.16,3741.416 699.312,3740.408 699.616,3739.48 C699.92,3738.552 700.376,3737.752 700.984,3737.08 C701.592,3736.408 702.336,3735.888 703.216,3735.52 C704.096,3735.152 705.096,3734.968 706.216,3734.968 C707.752,3734.968 709.04,3735.32 710.08,3736.024 C711.12,3736.728 711.864,3737.72 712.312,3739 L712.312,3739 L715.384,3737.368 C714.68,3735.672 713.576,3734.296 712.072,3733.24 C710.568,3732.184 708.616,3731.656 706.216,3731.656 C704.456,3731.656 702.888,3731.96 701.512,3732.568 C700.136,3733.176 698.968,3734.048 698.008,3735.184 C697.048,3736.32 696.312,3737.688 695.8,3739.288 C695.288,3740.888 695.032,3742.664 695.032,3744.616 C695.032,3746.568 695.28,3748.344 695.776,3749.944 C696.272,3751.544 697,3752.904 697.96,3754.024 C698.92,3755.144 700.096,3756.016 701.488,3756.64 C702.88,3757.264 704.472,3757.576 706.264,3757.576 Z M735.304,3757.576 C736.84,3757.576 738.168,3757.368 739.288,3756.952 C740.408,3756.536 741.368,3755.976 742.168,3755.272 C742.968,3754.568 743.64,3753.784 744.184,3752.92 C744.728,3752.056 745.208,3751.16 745.624,3750.232 L745.624,3750.232 L742.168,3748.648 C741.88,3749.384 741.544,3750.08 741.16,3750.736 C740.776,3751.392 740.32,3751.968 739.792,3752.464 C739.264,3752.96 738.64,3753.352 737.92,3753.64 C737.2,3753.928 736.328,3754.072 735.304,3754.072 C732.648,3754.072 730.672,3753.064 729.376,3751.048 C728.08,3749.032 727.432,3746.344 727.432,3742.984 L727.432,3742.984 L727.432,3737.512 C727.432,3734.152 728.08,3731.464 729.376,3729.448 C730.672,3727.432 732.648,3726.424 735.304,3726.424 C736.328,3726.424 737.2,3726.568 737.92,3726.856 C738.64,3727.144 739.264,3727.536 739.792,3728.032 C740.32,3728.528 740.776,3729.104 741.16,3729.76 C741.544,3730.416 741.88,3731.112 742.168,3731.848 L742.168,3731.848 L745.624,3730.264 C745.208,3729.368 744.728,3728.48 744.184,3727.6 C743.64,3726.72 742.968,3725.928 742.168,3725.224 C741.368,3724.52 740.408,3723.96 739.288,3723.544 C738.168,3723.128 736.84,3722.92 735.304,3722.92 C731.208,3722.92 728.16,3724.408 726.16,3727.384 C724.16,3730.36 723.16,3734.648 723.16,3740.248 C723.16,3745.848 724.16,3750.136 726.16,3753.112 C728.16,3756.088 731.208,3757.576 735.304,3757.576 Z M757.144,3757 L757.144,3739.816 C757.144,3739.016 757.32,3738.312 757.672,3737.704 C758.024,3737.096 758.488,3736.6 759.064,3736.216 C759.64,3735.832 760.296,3735.544 761.032,3735.352 C761.768,3735.16 762.52,3735.064 763.288,3735.064 C765.208,3735.064 766.664,3735.616 767.656,3736.72 C768.648,3737.824 769.144,3739.512 769.144,3741.784 L769.144,3741.784 L769.144,3757 L772.984,3757 L772.984,3741.112 C772.984,3738.104 772.2,3735.776 770.632,3734.128 C769.064,3732.48 766.984,3731.656 764.392,3731.656 C763.368,3731.656 762.472,3731.784 761.704,3732.04 C760.936,3732.296 760.272,3732.632 759.712,3733.048 C759.152,3733.464 758.68,3733.952 758.296,3734.512 C757.912,3735.072 757.592,3735.656 757.336,3736.264 L757.336,3736.264 L757.144,3736.264 L757.144,3721.48 L753.304,3721.48 L753.304,3757 L757.144,3757 Z M789.064,3757.576 C791.08,3757.576 792.688,3757.168 793.888,3756.352 C795.088,3755.536 795.96,3754.408 796.504,3752.968 L796.504,3752.968 L796.744,3752.968 C796.904,3754.12 797.304,3755.08 797.944,3755.848 C798.584,3756.616 799.656,3757 801.16,3757 L801.16,3757 L803.8,3757 L803.8,3753.64 L800.344,3753.64 L800.344,3740.008 C800.344,3737.384 799.488,3735.336 797.776,3733.864 C796.064,3732.392 793.752,3731.656 790.84,3731.656 C789.592,3731.656 788.456,3731.792 787.432,3732.064 C786.408,3732.336 785.496,3732.704 784.696,3733.168 C783.896,3733.632 783.224,3734.168 782.68,3734.776 C782.136,3735.384 781.704,3736.008 781.384,3736.648 L781.384,3736.648 L783.976,3738.568 C784.616,3737.448 785.464,3736.56 786.52,3735.904 C787.576,3735.248 788.936,3734.92 790.6,3734.92 C792.488,3734.92 793.944,3735.376 794.968,3736.288 C795.992,3737.2 796.504,3738.568 796.504,3740.392 L796.504,3740.392 L796.504,3742.84 L791.224,3742.84 C787.48,3742.84 784.768,3743.464 783.088,3744.712 C781.408,3745.96 780.568,3747.736 780.568,3750.04 C780.568,3752.376 781.336,3754.216 782.872,3755.56 C784.408,3756.904 786.472,3757.576 789.064,3757.576 Z M789.736,3754.36 C788.136,3754.36 786.88,3754.032 785.968,3753.376 C785.056,3752.72 784.6,3751.752 784.6,3750.472 L784.6,3750.472 L784.6,3749.464 C784.6,3748.248 785.128,3747.32 786.184,3746.68 C787.24,3746.04 788.92,3745.72 791.224,3745.72 L791.224,3745.72 L796.504,3745.72 L796.504,3749.8 C796.504,3750.44 796.336,3751.04 796,3751.6 C795.664,3752.16 795.192,3752.64 794.584,3753.04 C793.976,3753.44 793.264,3753.76 792.448,3754 C791.632,3754.24 790.728,3754.36 789.736,3754.36 Z M830.584,3757 L830.584,3753.736 L820.984,3753.736 L820.984,3743.032 C820.984,3740.952 821.664,3739.272 823.024,3737.992 C824.384,3736.712 826.168,3736.072 828.376,3736.072 L828.376,3736.072 L833.032,3736.072 L833.032,3732.232 L829.576,3732.232 C827.368,3732.232 825.552,3732.784 824.128,3733.888 C822.704,3734.992 821.736,3736.52 821.224,3738.472 L821.224,3738.472 L820.984,3738.472 L820.984,3732.232 L809.896,3732.232 L809.896,3735.496 L817.144,3735.496 L817.144,3753.736 L809.896,3753.736 L809.896,3757 L830.584,3757 Z M849.448,3767.176 C853.608,3767.176 856.728,3766.576 858.808,3765.376 C860.888,3764.176 861.928,3762.328 861.928,3759.832 C861.928,3757.816 861.208,3756.208 859.768,3755.008 C858.328,3753.808 856.008,3753.208 852.808,3753.208 L852.808,3753.208 L847.336,3753.208 C846.152,3753.208 845.192,3753.088 844.456,3752.848 C843.72,3752.608 843.352,3752.12 843.352,3751.384 C843.352,3750.968 843.464,3750.6 843.688,3750.28 C843.912,3749.96 844.2,3749.68 844.552,3749.44 C844.904,3749.2 845.288,3749.008 845.704,3748.864 C846.12,3748.72 846.52,3748.616 846.904,3748.552 C847.288,3748.616 847.672,3748.664 848.056,3748.696 C848.44,3748.728 848.84,3748.744 849.256,3748.744 C850.696,3748.744 852.016,3748.536 853.216,3748.12 C854.416,3747.704 855.432,3747.12 856.264,3746.368 C857.096,3745.616 857.744,3744.712 858.208,3743.656 C858.672,3742.6 858.904,3741.448 858.904,3740.2 C858.904,3738.888 858.664,3737.704 858.184,3736.648 C857.704,3735.592 857.016,3734.68 856.12,3733.912 L856.12,3733.912 L856.12,3732.232 L861.688,3732.232 L861.688,3728.872 L857.128,3728.872 C856.04,3728.872 855.272,3729.192 854.824,3729.832 C854.376,3730.472 854.152,3731.272 854.152,3732.232 L854.152,3732.232 L854.152,3732.664 C852.744,3731.992 851.112,3731.656 849.256,3731.656 C847.816,3731.656 846.504,3731.864 845.32,3732.28 C844.136,3732.696 843.12,3733.28 842.272,3734.032 C841.424,3734.784 840.776,3735.688 840.328,3736.744 C839.88,3737.8 839.656,3738.952 839.656,3740.2 C839.656,3741.96 840.08,3743.496 840.928,3744.808 C841.776,3746.12 842.968,3747.112 844.504,3747.784 L844.504,3747.784 L844.504,3747.976 C843.224,3748.296 842.16,3748.776 841.312,3749.416 C840.464,3750.056 840.04,3751.016 840.04,3752.296 C840.04,3753.128 840.232,3753.816 840.616,3754.36 C841,3754.904 841.544,3755.352 842.248,3755.704 L842.248,3755.704 L842.248,3756.28 C840.968,3756.632 839.976,3757.176 839.272,3757.912 C838.568,3758.648 838.216,3759.688 838.216,3761.032 C838.216,3763.016 839.088,3764.536 840.832,3765.592 C842.576,3766.648 845.448,3767.176 849.448,3767.176 Z M849.256,3745.768 C847.336,3745.768 845.928,3745.32 845.032,3744.424 C844.136,3743.528 843.688,3742.344 843.688,3740.872 L843.688,3740.872 L843.688,3739.48 C843.688,3738.008 844.136,3736.832 845.032,3735.952 C845.928,3735.072 847.336,3734.632 849.256,3734.632 C851.176,3734.632 852.592,3735.072 853.504,3735.952 C854.416,3736.832 854.872,3738.008 854.872,3739.48 L854.872,3739.48 L854.872,3740.872 C854.872,3742.344 854.416,3743.528 853.504,3744.424 C852.592,3745.32 851.176,3745.768 849.256,3745.768 Z M851.224,3764.104 L847.48,3764.104 C845.464,3764.104 844.024,3763.712 843.16,3762.928 C842.296,3762.144 841.864,3761.208 841.864,3760.12 C841.864,3758.552 842.696,3757.432 844.36,3756.76 L844.36,3756.76 L852.952,3756.76 C854.936,3756.76 856.328,3757.056 857.128,3757.648 C857.928,3758.24 858.328,3759.032 858.328,3760.024 C858.328,3761.368 857.704,3762.384 856.456,3763.072 C855.208,3763.76 853.464,3764.104 851.224,3764.104 L851.224,3764.104 Z M878.632,3757.576 C881.096,3757.576 883.184,3757.04 884.896,3755.968 C886.608,3754.896 887.832,3753.528 888.568,3751.864 L888.568,3751.864 L885.736,3749.944 C885.096,3751.288 884.168,3752.344 882.952,3753.112 C881.736,3753.88 880.296,3754.264 878.632,3754.264 C877.48,3754.264 876.432,3754.08 875.488,3753.712 C874.544,3753.344 873.744,3752.824 873.088,3752.152 C872.432,3751.48 871.928,3750.68 871.576,3749.752 C871.224,3748.824 871.048,3747.816 871.048,3746.728 L871.048,3746.728 L871.048,3745.576 L889.384,3745.576 L889.384,3743.752 C889.384,3741.992 889.128,3740.376 888.616,3738.904 C888.104,3737.432 887.368,3736.16 886.408,3735.088 C885.448,3734.016 884.288,3733.176 882.928,3732.568 C881.568,3731.96 880.056,3731.656 878.392,3731.656 C876.696,3731.656 875.152,3731.96 873.76,3732.568 C872.368,3733.176 871.176,3734.048 870.184,3735.184 C869.192,3736.32 868.416,3737.688 867.856,3739.288 C867.296,3740.888 867.016,3742.68 867.016,3744.664 C867.016,3746.616 867.288,3748.384 867.832,3749.968 C868.376,3751.552 869.152,3752.912 870.16,3754.048 C871.168,3755.184 872.384,3756.056 873.808,3756.664 C875.232,3757.272 876.84,3757.576 878.632,3757.576 Z M535,3723 L535,3727.375 L522.952125,3741.71704 L533.31825,3754.07116 L535,3750.60363 L534.353375,3758 L526.957,3757.35294 L530.6635,3756.29839 L518.403,3741.71704 L530.4255,3727.375 L516.767625,3727.375 L508.022,3737.7889 L515.976625,3747.29175 L508.392125,3756.29839 L512.0995,3757.35294 L504.703125,3758 L504.055625,3750.60363 L505.737375,3754.07116 L511.426625,3747.29175 L503.467625,3737.7889 L512.196625,3727.375 L500,3727.375 L500,3723 L535,3723 Z M878.392,3734.824 C879.416,3734.824 880.352,3735 881.2,3735.352 C882.048,3735.704 882.768,3736.208 883.36,3736.864 C883.952,3737.52 884.416,3738.296 884.752,3739.192 C885.046,3739.976 885.211375,3740.8335 885.248125,3741.7645 L885.256,3742.168 L885.256,3742.696 L871.048,3742.696 L871.048,3742.36 C871.048,3741.272 871.232,3740.272 871.6,3739.36 C871.968,3738.448 872.48,3737.656 873.136,3736.984 C873.792,3736.312 874.568,3735.784 875.464,3735.4 C876.36,3735.016 877.336,3734.824 878.392,3734.824 Z" id="StaticCharge" fill="#FFFFFF" fill-rule="nonzero"></path>
        </g>
    </g>
</svg>
